<?xml version="1.0" encoding="iso-8859-1"?>
<!-- Uploaded to: SVG Repo, www.svgrepo.com, Generator: SVG Repo Mixer Tools -->
<svg version="1.1" id="Layer_1" xmlns="http://www.w3.org/2000/svg" xmlns:xlink="http://www.w3.org/1999/xlink" 
	 viewBox="0 0 512 512" xml:space="preserve">
<circle style="fill:#366695;" cx="256" cy="256" r="256"/>
<path style="fill:#273B7A;" d="M119.811,378.166L252.799,511.96c1.067,0.014,2.131,0.04,3.2,0.04c141.384,0,256-114.616,256-256
	c0-4.556-0.124-9.083-0.359-13.581L357.793,88.573L119.811,378.166z"/>
<g>
	<path style="fill:#CECECE;" d="M377.966,384H134.034c-11.186,0-20.256-9.069-20.256-20.256V148.256
		c0-11.186,9.069-20.256,20.256-20.256h243.933c11.186,0,20.256,9.069,20.256,20.256v215.488
		C398.222,374.931,389.153,384,377.966,384z"/>
	<path style="fill:#CECECE;" d="M398.222,148.256c0-11.186-9.068-20.256-20.256-20.256H134.034
		c-11.188,0-20.256,9.068-20.256,20.256v45.684h284.444V148.256z"/>
</g>
<path style="fill:#999999;" d="M398.222,148.256c0-11.186-9.068-20.256-20.256-20.256h-122.54v65.939h142.796V148.256z"/>
<rect x="113.778" y="193.939" style="fill:#FFFFFF;" width="284.444" height="64.646"/>
<rect x="255.431" y="193.939" style="fill:#DDDDDD;" width="142.791" height="64.646"/>
<path style="fill:#FFFFFF;" d="M113.778,324.094v39.65c0,11.186,9.068,20.256,20.256,20.256h243.933
	c11.186,0,20.256-9.069,20.256-20.256v-39.65H113.778z"/>
<path style="fill:#DDDDDD;" d="M255.426,324.094V384h122.54c11.186,0,20.256-9.069,20.256-20.256v-39.65H255.426z"/>
<rect x="113.778" y="258.586" style="fill:#CECECE;" width="284.444" height="65.508"/>
<rect x="255.431" y="258.586" style="fill:#999999;" width="142.791" height="65.508"/>
<rect x="215.488" y="193.939" style="fill:#757575;" width="81.024" height="20.256"/>
<rect x="255.431" y="193.939" style="fill:#545454;" width="41.086" height="20.256"/>
<rect x="215.488" y="258.586" style="fill:#757575;" width="81.024" height="20.256"/>
<rect x="255.431" y="258.586" style="fill:#545454;" width="41.086" height="20.256"/>
<rect x="215.488" y="324.094" style="fill:#757575;" width="81.024" height="20.256"/>
<rect x="255.431" y="324.094" style="fill:#545454;" width="41.086" height="20.256"/>
<path style="fill:#FFFFFF;" d="M253.773,142.222h97.544c4.482,0,8.116-3.634,8.116-8.118V93.449c0-4.482-3.634-8.116-8.116-8.116
	h-97.544c-4.482,0-8.116,3.634-8.116,8.116v40.655C245.657,138.588,249.291,142.222,253.773,142.222z"/>
<path style="fill:#71E2EF;" d="M256.976,134.982h91.138c1.967,0,3.562-1.595,3.562-3.562V96.135c0-1.967-1.595-3.562-3.562-3.562
	h-91.138c-1.967,0-3.562,1.595-3.562,3.562v35.283C253.414,133.387,255.009,134.982,256.976,134.982z"/>
</svg>